# xmcd CD database file
#
# Track frame offsets:
#	150
#	26100
#	45537
#	59955
#	75278
#	99697
#	123483
#	146400
#	164782
#	183210
#
# Disc length: 2692 seconds
#
# Revision: 0
# Processed by: cddbd v1.5PL3 Copyright (c) Steve Scherf et al.
# Submitted via: cdripper 1.0.7
#
DISCID=8b0a820a
DTITLE=Willie May - Category Six
DYEAR=2001
DGENRE=Blues
TTITLE0=Blue Room
TTITLE1=You Say That You Love Me
TTITLE2=Why Did You Leave Me Alone
TTITLE3=Lookin' for Jesus
TTITLE4=Think Of Me Sometime
TTITLE5=Rich and Famous
TTITLE6=Cocaine Hangover Blues
TTITLE7=Financial Difficulty
TTITLE8=I Wish You Could Say
TTITLE9=Feeling Like A Storm Is Coming
EXTD=YEAR: 2001
EXTT0=
EXTT1=
EXTT2=
EXTT3=
EXTT4=
EXTT5=
EXTT6=
EXTT7=
EXTT8=
EXTT9=
PLAYORDER=
